# xmcd
#
# Track frame offsets:
#	150
#	13247
#	26110
#	37792
#	49360
#	61535
#	75572
#	86600
#	99895
#	112317
#	124457
#	139802
#	152712
#	165337
#	179080
#	192715
#	206102
#	217852
#	230590
#	242807
#
# Disc length: 3438 seconds
#
# Revision: 1
# Processed by: cddbd v1.5.2PL0 Copyright (c) Steve Scherf et al.
# Submitted via: audiograbber 1.83.01
#
DISCID=1b0d6c14
DTITLE=Conway Twitty - Hellow Darlin'
DYEAR=1900
DGENRE=Country
TTITLE0=The Image Of Me
TTITLE1=Next In Line
TTITLE2=Darling You Know I Wouldn't Lie
TTITLE3=I Love You More Today Than He Can From Now On
TTITLE4=To See My Angel Cry
TTITLE5=That's When She Started To Stop Loving You
TTITLE6=Hellow Darlin'
TTITLE7=How Much More Can She Stand
TTITLE8=I Wonder What She'll Think About Me Leaving
TTITLE9=I Can't See Me Without You
TTITLE10=Lost Her Love On Our Last Date
TTITLE11=I Can't Stop Loving You
TTITLE12=She Needs Someone To Hold Her
TTITLE13=Baby's Gone
TTITLE14=You've Never Been This Far Before
TTITLE15=There's A Honkytonk Angel Who'll Take Me Back In
TTITLE16=I'm Not Through Loving You Yet
TTITLE17=I See The Want To In Your Eyes
TTITLE18=Lying Here With Linda On My Mind
TTITLE19=Touch The Hand
EXTD=
EXTT0=
EXTT1=
EXTT2=
EXTT3=
EXTT4=
EXTT5=
EXTT6=
EXTT7=
EXTT8=
EXTT9=
EXTT10=
EXTT11=
EXTT12=
EXTT13=
EXTT14=
EXTT15=
EXTT16=
EXTT17=
EXTT18=
EXTT19=
PLAYORDER=
